<svg xmlns="http://www.w3.org/2000/svg" viewBox="0 0 400 480" role="img" aria-label="MediSpark premium jersey number 10">
  <defs>
    <clipPath id="jersey-clip">
      <path transform="translate(8 8) scale(16)" d="M20.38 3.46 16 2a4 4 0 0 1-8 0L3.62 3.46a2 2 0 0 0-1.34 2.23l.58 3.47a1 1 0 0 0 .99.84H6v10c0 1.1.9 2 2 2h8a2 2 0 0 0 2-2V10h2.15a1 1 0 0 0 .99-.84l.58-3.47a2 2 0 0 0-1.34-2.23z"/>
    </clipPath>
  </defs>
  <path transform="translate(8 8) scale(16)" fill="#e50914" stroke="#7f0710" stroke-width="0.15" d="M20.38 3.46 16 2a4 4 0 0 1-8 0L3.62 3.46a2 2 0 0 0-1.34 2.23l.58 3.47a1 1 0 0 0 .99.84H6v10c0 1.1.9 2 2 2h8a2 2 0 0 0 2-2V10h2.15a1 1 0 0 0 .99-.84l.58-3.47a2 2 0 0 0-1.34-2.23z"/>
  <g clip-path="url(#jersey-clip)">
    <rect x="200" y="0" width="200" height="480" fill="#151515"/>
  </g>
  <path d="M166 44 L200 98 L234 44" fill="none" stroke="#ffffff" stroke-width="8" stroke-linecap="round" stroke-linejoin="round"/>
  <path d="M120 106h16v12h12v16h-12v12h-16v-12h-12v-16h12z" fill="#ffffff"/>
  <rect x="110" y="185" width="180" height="44" rx="10" fill="#ffffff"/>
  <text x="200" y="225" font-family="Arial, Helvetica, sans-serif" font-size="58" font-weight="800" fill="#111111" text-anchor="middle">10</text>
  <text x="200" y="312" font-family="Arial, Helvetica, sans-serif" font-size="22" font-weight="800" letter-spacing="6" fill="#ffffff" text-anchor="middle">MEDISPARK</text>
</svg>